<svg id="Группа_2" data-name="Группа 2" xmlns="http://www.w3.org/2000/svg" xmlns:xlink="http://www.w3.org/1999/xlink" width="191" height="641" viewBox="0 0 191 641">
  <metadata><?xpacket begin="﻿" id="W5M0MpCehiHzreSzNTczkc9d"?>
<x:xmpmeta xmlns:x="adobe:ns:meta/" x:xmptk="Adobe XMP Core 5.6-c138 79.159824, 2016/09/14-01:09:01        ">
   <rdf:RDF xmlns:rdf="http://www.w3.org/1999/02/22-rdf-syntax-ns#">
      <rdf:Description rdf:about=""/>
   </rdf:RDF>
</x:xmpmeta>
                                                                                                    
                                                                                                    
                                                                                                    
                                                                                                    
                                                                                                    
                                                                                                    
                                                                                                    
                                                                                                    
                                                                                                    
                                                                                                    
                                                                                                    
                                                                                                    
                                                                                                    
                                                                                                    
                                                                                                    
                                                                                                    
                                                                                                    
                                                                                                    
                                                                                                    
                                                                                                    
                           
<?xpacket end="w"?></metadata>
<defs>
    <style>
      .cls-1, .cls-2 {
        fill: none;
        stroke-width: 2px;
      }

      .cls-1 {
        stroke: #fe3e57;
        filter: url(#filter);
      }

      .cls-2 {
        stroke: #34c3ff;
        filter: url(#filter-2);
      }

      .cls-3 {
        fill: #34c3ff;
        filter: url(#filter-3);
      }

      .cls-3, .cls-4, .cls-5, .cls-6 {
        fill-rule: evenodd;
      }

      .cls-4 {
        fill: #5800e4;
        filter: url(#filter-4);
      }

      .cls-5 {
        fill: #ffb534;
        filter: url(#filter-5);
      }

      .cls-6 {
        fill: #fe3e57;
        filter: url(#filter-6);
      }
    </style>
    <filter id="filter" x="98" y="482" width="45" height="45" filterUnits="userSpaceOnUse">
      <feOffset result="offset" dy="3" in="SourceAlpha"/>
      <feGaussianBlur result="blur" stdDeviation="2.236"/>
      <feFlood result="flood" flood-color="#fe3e57" flood-opacity="0.4"/>
      <feComposite result="composite" operator="in" in2="blur"/>
      <feBlend result="blend" in="SourceGraphic"/>
    </filter>
    <filter id="filter-2" x="71" y="152" width="21" height="20" filterUnits="userSpaceOnUse">
      <feOffset result="offset" dy="3" in="SourceAlpha"/>
      <feGaussianBlur result="blur" stdDeviation="2.236"/>
      <feFlood result="flood" flood-color="#34c3ff" flood-opacity="0.4"/>
      <feComposite result="composite" operator="in" in2="blur"/>
      <feBlend result="blend" in="SourceGraphic"/>
    </filter>
    <filter id="filter-3" x="1847" y="1827" width="22" height="22" filterUnits="userSpaceOnUse">
      <feOffset result="offset" dy="3" in="SourceAlpha"/>
      <feGaussianBlur result="blur" stdDeviation="2.236"/>
      <feFlood result="flood" flood-color="#34c3ff" flood-opacity="0.4"/>
      <feComposite result="composite" operator="in" in2="blur"/>
      <feBlend result="blend" in="SourceGraphic"/>
    </filter>
    <filter id="filter-4" x="1853" y="1579" width="21" height="21" filterUnits="userSpaceOnUse">
      <feOffset result="offset" dy="3" in="SourceAlpha"/>
      <feGaussianBlur result="blur" stdDeviation="2.236"/>
      <feFlood result="flood" flood-color="#5800e4" flood-opacity="0.4"/>
      <feComposite result="composite" operator="in" in2="blur"/>
      <feBlend result="blend" in="SourceGraphic"/>
    </filter>
    <filter id="filter-5" x="1683" y="1496" width="21" height="22" filterUnits="userSpaceOnUse">
      <feOffset result="offset" dy="3" in="SourceAlpha"/>
      <feGaussianBlur result="blur" stdDeviation="2.236"/>
      <feFlood result="flood" flood-color="#ffb534" flood-opacity="0.4"/>
      <feComposite result="composite" operator="in" in2="blur"/>
      <feBlend result="blend" in="SourceGraphic"/>
    </filter>
    <filter id="filter-6" x="1823" y="1208" width="22" height="22" filterUnits="userSpaceOnUse">
      <feOffset result="offset" dy="3" in="SourceAlpha"/>
      <feGaussianBlur result="blur" stdDeviation="2.236"/>
      <feFlood result="flood" flood-color="#fe3e57" flood-opacity="0.4"/>
      <feComposite result="composite" operator="in" in2="blur"/>
      <feBlend result="blend" in="SourceGraphic"/>
    </filter>
  </defs>
  <g style="fill: none; filter: url(#filter)">
    <circle id="circle-2" class="cls-1" cx="120.485" cy="501" r="17.515" style="stroke: inherit; filter: none; fill: inherit"/>
  </g>
  <use xlink:href="#circle-2" style="stroke: #fe3e57; filter: none; fill: none"/>
  <g style="fill: none; filter: url(#filter-2)">
    <circle id="circle" class="cls-2" cx="81.47" cy="158.5" r="5.5" style="stroke: inherit; filter: none; fill: inherit"/>
  </g>
  <use xlink:href="#circle" style="stroke: #34c3ff; filter: none; fill: none"/>
  <path class="cls-3" d="M1855.92,1834.53l-3.79-3.96a1.262,1.262,0,0,1,0-1.75,1.148,1.148,0,0,1,1.67,0l3.8,3.96,3.79-3.96a1.16,1.16,0,0,1,1.68,0h0a1.282,1.282,0,0,1,0,1.75l-3.8,3.96,3.8,3.96a1.269,1.269,0,0,1,0,1.74h0a1.16,1.16,0,0,1-1.68,0l-3.79-3.96-3.8,3.96a1.148,1.148,0,0,1-1.67,0h0a1.25,1.25,0,0,1,0-1.74Z" transform="translate(-1683 -1208)"/>
  <path class="cls-4" d="M1862.99,1580.34l5.66,5.66-5.66,5.66-5.66-5.66Z" transform="translate(-1683 -1208)"/>
  <path id="Shape_3_copy_2" data-name="Shape 3 copy 2" class="cls-5" d="M1691.28,1503.19l-3.8-3.95a1.282,1.282,0,0,1,0-1.75,1.16,1.16,0,0,1,1.68,0l3.79,3.96,3.8-3.96a1.148,1.148,0,0,1,1.67,0h0a1.282,1.282,0,0,1,0,1.75l-3.79,3.95,3.79,3.96a1.282,1.282,0,0,1,0,1.75h0a1.148,1.148,0,0,1-1.67,0l-3.8-3.96-3.79,3.96a1.16,1.16,0,0,1-1.68,0h0a1.282,1.282,0,0,1,0-1.75Z" transform="translate(-1683 -1208)"/>
  <path id="Shape_3_copy_3" data-name="Shape 3 copy 3" class="cls-6" d="M1831.57,1215.55l-3.8-3.96a1.282,1.282,0,0,1,0-1.75,1.16,1.16,0,0,1,1.68,0l3.79,3.96,3.8-3.96a1.148,1.148,0,0,1,1.67,0h0a1.282,1.282,0,0,1,0,1.75l-3.79,3.96,3.79,3.96a1.269,1.269,0,0,1,0,1.74h0a1.132,1.132,0,0,1-1.67,0l-3.8-3.95-3.79,3.95a1.144,1.144,0,0,1-1.68,0h0a1.269,1.269,0,0,1,0-1.74Z" transform="translate(-1683 -1208)"/>
</svg>
